<mxfile host="65bd71144e">
    <diagram id="R2lEEEUBdFMjLlhIrx00" name="Page-1">
        <mxGraphModel dx="794" dy="780" grid="1" gridSize="10" guides="1" tooltips="1" connect="1" arrows="1" fold="1" page="1" pageScale="1" pageWidth="850" pageHeight="1100" math="0" shadow="0" extFonts="Permanent Marker^https://fonts.googleapis.com/css?family=Permanent+Marker">
            <root>
                <mxCell id="0"/>
                <mxCell id="1" parent="0"/>
                <mxCell id="66" value="" style="rounded=0;whiteSpace=wrap;html=1;fontFamily=Verdana;fontSize=14;fontColor=#333333;strokeColor=#000000;fillColor=#f5f5f5;direction=east;labelBackgroundColor=none;" parent="1" vertex="1">
                    <mxGeometry x="37" y="50" width="710" height="360" as="geometry"/>
                </mxCell>
                <mxCell id="74" style="edgeStyle=none;html=1;entryX=0;entryY=0.5;entryDx=0;entryDy=0;entryPerimeter=0;fontFamily=Verdana;fontSize=14;strokeWidth=2;endArrow=block;endFill=1;" edge="1" parent="1" target="69">
                    <mxGeometry relative="1" as="geometry">
                        <mxPoint x="150" y="314" as="sourcePoint"/>
                    </mxGeometry>
                </mxCell>
                <mxCell id="67" value="Users" style="sketch=0;pointerEvents=1;shadow=0;dashed=0;html=1;strokeColor=none;labelPosition=center;verticalLabelPosition=bottom;verticalAlign=top;align=center;fillColor=#505050;shape=mxgraph.mscae.intune.user_group;fontSize=14;fontFamily=Verdana;" vertex="1" parent="1">
                    <mxGeometry x="60" y="283.37" width="70" height="56.63" as="geometry"/>
                </mxCell>
                <mxCell id="76" style="edgeStyle=none;html=1;entryX=0.5;entryY=1;entryDx=0;entryDy=0;entryPerimeter=0;fontFamily=Verdana;fontSize=14;endArrow=block;endFill=1;strokeWidth=2;" edge="1" parent="1" target="70">
                    <mxGeometry relative="1" as="geometry">
                        <mxPoint x="386" y="270" as="sourcePoint"/>
                    </mxGeometry>
                </mxCell>
                <mxCell id="77" style="edgeStyle=none;html=1;entryX=0;entryY=0.5;entryDx=0;entryDy=0;fontFamily=Verdana;fontSize=14;endArrow=block;endFill=1;strokeWidth=2;" edge="1" parent="1" target="73">
                    <mxGeometry relative="1" as="geometry">
                        <mxPoint x="470" y="313" as="sourcePoint"/>
                    </mxGeometry>
                </mxCell>
                <mxCell id="68" value="Clients" style="points=[[0.03,0.03,0],[0.5,0,0],[0.97,0.03,0],[1,0.4,0],[0.97,0.745,0],[0.5,1,0],[0.03,0.745,0],[0,0.4,0]];verticalLabelPosition=bottom;sketch=0;html=1;verticalAlign=top;aspect=fixed;align=center;pointerEvents=1;shape=mxgraph.cisco19.workstation;fillColor=#515151;strokeColor=none;fontSize=14;fontFamily=Verdana;" vertex="1" parent="1">
                    <mxGeometry x="382" y="284.62" width="75.94" height="60.75" as="geometry"/>
                </mxCell>
                <mxCell id="69" value="" style="sketch=0;points=[[0.015,0.015,0],[0.985,0.015,0],[0.985,0.985,0],[0.015,0.985,0],[0.25,0,0],[0.5,0,0],[0.75,0,0],[1,0.25,0],[1,0.5,0],[1,0.75,0],[0.75,1,0],[0.5,1,0],[0.25,1,0],[0,0.75,0],[0,0.5,0],[0,0.25,0]];verticalLabelPosition=bottom;html=1;verticalAlign=top;aspect=fixed;align=center;pointerEvents=1;shape=mxgraph.cisco19.handheld;fillColor=#515151;strokeColor=none;" vertex="1" parent="1">
                    <mxGeometry x="340" y="289" width="37.5" height="50" as="geometry"/>
                </mxCell>
                <mxCell id="70" value="IAM" style="verticalLabelPosition=top;html=1;verticalAlign=bottom;align=center;strokeColor=none;fillColor=#515151;shape=mxgraph.azure.access_control;fontSize=14;labelPosition=center;fontFamily=Verdana;" vertex="1" parent="1">
                    <mxGeometry x="348" y="80" width="75" height="80" as="geometry"/>
                </mxCell>
                <mxCell id="73" value="Resources" style="aspect=fixed;perimeter=ellipsePerimeter;html=1;align=center;shadow=0;dashed=0;fontColor=#000000;labelBackgroundColor=none;fontSize=14;spacingTop=3;image;image=img/lib/ibm/security/api_security.svg;fillColor=none;fontFamily=Verdana;" vertex="1" parent="1">
                    <mxGeometry x="650" y="286.46" width="53.16" height="53.16" as="geometry"/>
                </mxCell>
                <mxCell id="78" value="Authenticate Users" style="text;html=1;strokeColor=none;fillColor=none;align=center;verticalAlign=middle;whiteSpace=wrap;rounded=0;labelBackgroundColor=none;fontFamily=Verdana;fontSize=14;fontColor=#000000;" vertex="1" parent="1">
                    <mxGeometry x="303" y="190" width="60" height="30" as="geometry"/>
                </mxCell>
                <mxCell id="79" value="Request access to resources" style="text;html=1;strokeColor=none;fillColor=none;align=center;verticalAlign=middle;whiteSpace=wrap;rounded=0;labelBackgroundColor=none;fontFamily=Verdana;fontSize=14;fontColor=#000000;" vertex="1" parent="1">
                    <mxGeometry x="398" y="190" width="60" height="30" as="geometry"/>
                </mxCell>
                <mxCell id="80" value="Identity Data" style="fillColor=#28A8E0;verticalLabelPosition=bottom;sketch=0;html=1;strokeColor=#ffffff;verticalAlign=top;align=center;points=[[0.145,0.145,0],[0.5,0,0],[0.855,0.145,0],[1,0.5,0],[0.855,0.855,0],[0.5,1,0],[0.145,0.855,0],[0,0.5,0]];pointerEvents=1;shape=mxgraph.cisco_safe.compositeIcon;bgIcon=ellipse;resIcon=mxgraph.cisco_safe.capability.identity_authorization;labelBackgroundColor=none;fontFamily=Verdana;fontSize=14;fontColor=#000000;" vertex="1" parent="1">
                    <mxGeometry x="650" y="207" width="53" height="50" as="geometry"/>
                </mxCell>
            </root>
        </mxGraphModel>
    </diagram>
</mxfile>